<svg xmlns="http://www.w3.org/2000/svg" viewBox="0 0 32 32">
  <defs>
    <linearGradient id="cab" x1="0%" y1="0%" x2="0%" y2="100%">
      <stop offset="0%" stop-color="#ffe066"/>
      <stop offset="50%" stop-color="#f6bc26"/>
      <stop offset="100%" stop-color="#d9a31a"/>
    </linearGradient>
    <linearGradient id="glass" x1="0%" y1="0%" x2="0%" y2="100%">
      <stop offset="0%" stop-color="#f2f8ff"/>
      <stop offset="100%" stop-color="#6ba8d9"/>
    </linearGradient>
    <linearGradient id="wheel" x1="30%" y1="25%" x2="100%" y2="100%">
      <stop offset="0%" stop-color="#4a4a4a"/>
      <stop offset="100%" stop-color="#151515"/>
    </linearGradient>
  </defs>
  <rect width="32" height="32" rx="7" fill="#f7f7f5"/>
  <!-- Cute NYC cab: body + cabin + roof light -->
  <path
    fill="url(#cab)"
    stroke="rgba(0, 0, 0, 0.1)"
    stroke-width="0.35"
    d="M 5.5 20.5 v -4.5 L 7 12.5 q 0.6 -1.8 2.2 -1.8 h 14.2 q 1.6 0 2.2 1.8 l 1.3 3.5 v 5 q 0 1 -1 1 H 6.5 q -1 0 -1 -1 z"
  />
  <path fill="url(#glass)" d="M 9 13 h 14 l 1 3.2 H 8 z"/>
  <rect x="10.5" y="9.5" width="11" height="3.5" rx="1.2" fill="#fefefe"/>
  <rect x="11.5" y="10.5" width="9" height="2" rx="0.5" fill="#08179c"/>
  <ellipse cx="16" cy="23.5" rx="9" ry="2.2" fill="#1a1a1a" opacity="0.35"/>
  <circle cx="10" cy="23.5" r="2.8" fill="url(#wheel)"/>
  <circle cx="22" cy="23.5" r="2.8" fill="url(#wheel)"/>
</svg>
